<svg xmlns="http://www.w3.org/2000/svg" width="10.858" height="10.858" viewBox="0 0 10.858 10.858"><defs><style>.a{fill:#757575;}</style></defs><g transform="translate(0 -0.001)"><g transform="translate(0 0.001)"><path class="a" d="M10.269,4.672H6.186V.59A.732.732,0,0,0,5.429,0,.732.732,0,0,0,4.671.59V4.672H.589A.732.732,0,0,0,0,5.43a.732.732,0,0,0,.589.758H4.671V10.27a.732.732,0,0,0,.758.589.732.732,0,0,0,.758-.589V6.187h4.082a.732.732,0,0,0,.589-.758A.732.732,0,0,0,10.269,4.672Z" transform="translate(0 -0.001)"/></g></g></svg>