<svg xmlns="http://www.w3.org/2000/svg" width="16.336" height="13" viewBox="0 0 16.336 13"><defs><style>.a{fill:#d32c29;}</style></defs><g transform="translate(0.001 -46.994)"><g transform="translate(-0.001 46.994)"><path class="a" d="M71.534,120.939l-5.826,4.8a.138.138,0,0,1-.005.03.139.139,0,0,0-.005.03v4.863a.658.658,0,0,0,.648.649h3.891v-3.891h2.594v3.891h3.891a.659.659,0,0,0,.649-.649V125.8a.143.143,0,0,0-.01-.061Z" transform="translate(-63.366 -118.315)"/><path class="a" d="M16.222,53.327,14,51.483V47.349a.312.312,0,0,0-.324-.324H11.734a.312.312,0,0,0-.324.324v1.976L8.937,47.257a1.257,1.257,0,0,0-1.54,0L.112,53.327A.294.294,0,0,0,0,53.545a.328.328,0,0,0,.071.238l.628.75a.346.346,0,0,0,.213.112.377.377,0,0,0,.243-.071l7.012-5.847,7.012,5.847a.312.312,0,0,0,.213.071h.03a.346.346,0,0,0,.213-.111l.628-.75a.328.328,0,0,0,.071-.238A.3.3,0,0,0,16.222,53.327Z" transform="translate(0.001 -46.994)"/></g></g></svg>