<svg xmlns="http://www.w3.org/2000/svg" width="11.7" height="9" viewBox="0 0 11.7 9"><defs><style>.a{fill:#fff;}</style></defs><path class="a" d="M7.515,11.865l4.05-4.05A.486.486,0,0,0,11.7,7.5a.409.409,0,0,0-.135-.315l-4.05-4.05a.435.435,0,0,0-.63,0l-.63.63a.435.435,0,0,0,0,.63l1.8,1.8a.242.242,0,0,1-.18.4H.45A.425.425,0,0,0,0,7.05v.9a.425.425,0,0,0,.45.45H7.92a.249.249,0,0,1,.18.4L6.3,10.6a.435.435,0,0,0,0,.63l.63.63A.409.409,0,0,0,7.245,12,.389.389,0,0,0,7.515,11.865Z" transform="translate(0 -3)"/></svg>